# xmcd
#
# Track frame offsets: 
#        150
#        11750
#        22074
#        31909
#        42213
#        52684
#        65431
#        75765
#        87389
#        97939
#        109842
#        122931
#        136141
#        149130
#        161237
#        179542
#        196335
#        224805
#        253337
#        270306
#        289544
#        309461
#
# Disc length: 4557 seconds
#
# Revision: 3
# Processed by: cddbd v1.5.2PL0 Copyright (c) Steve Scherf et al.
# Submitted via: ExactAudioCopyFreeDBPlugin 1.0
#
DISCID=3e11cb16
DTITLE=Ray Charles - Fifteen Classic Albums Plus Bonus Singles [Real G
DTITLE=one Music]
DYEAR=2011
DGENRE=Rhythm and Blues
TTITLE0=What Would I Do Without You?
TTITLE1=It's All Right
TTITLE2=I Want to Know
TTITLE3=Yes Indeed
TTITLE4=Get on the Right Track Baby
TTITLE5=Talkin' About You
TTITLE6=Swanee River Rock (Talkin' 'Bout That River)
TTITLE7=Lonely Avenue
TTITLE8=Blackjack
TTITLE9=The Sun's Gonna Shine Again
TTITLE10=I Had a Dream
TTITLE11=I Want a Little Girl
TTITLE12=Heartbreaker
TTITLE13=Leave My Women Alone
TTITLE14=Night Time is the Right Time
TTITLE15=In a Little Spanish Town
TTITLE16=I Got a Women
TTITLE17=Blues Waltz
TTITLE18=Hot Rod (The Spirit Feel)
TTITLE19=Talkin' 'Bout You
TTITLE20=Sherry
TTITLE21=A Fool for You
EXTD=
EXTT0=
EXTT1=
EXTT2=
EXTT3=
EXTT4=
EXTT5=
EXTT6=
EXTT7=
EXTT8=
EXTT9=
EXTT10=
EXTT11=
EXTT12=
EXTT13=
EXTT14=
EXTT15=
EXTT16=
EXTT17=
EXTT18=
EXTT19=
EXTT20=
EXTT21=
PLAYORDER=
